<svg xmlns="http://www.w3.org/2000/svg" width="1000" height="263.63693" viewBox="0 0 1000 263.63693"><path fill="#0070e0" d="M963.735 56.19 939.87 206.139a3.825 3.825 0 0 0 3.819 4.437h28.244a4.17 4.17 0 0 0 4.152-3.504L999.95 57.125a3.825 3.825 0 0 0-3.82-4.438h-28.243a4.116 4.116 0 0 0-4.153 3.504zm-30.16 43.759h-26.798a4.158 4.158 0 0 0-4.146 3.498l-.886 5.52s-20.814-22.57-57.666-7.317c-21.142 8.733-31.29 26.775-35.609 39.993 0 0-13.705 40.17 17.293 62.282 0 0 28.744 21.266 61.11-1.309l-.559 3.522a3.83 3.83 0 0 0 2.201 4.08 3.798 3.798 0 0 0 1.618.357h26.816a4.116 4.116 0 0 0 4.153-3.504l16.31-102.685a3.76 3.76 0 0 0-.886-3.099 3.825 3.825 0 0 0-2.95-1.344zm-39.433 56.75a29.773 29.773 0 0 1-10.201 18.41 30.177 30.177 0 0 1-19.899 7.157 27.376 27.376 0 0 1-8.423-1.226c-11.57-3.688-18.173-14.717-16.275-26.673a29.803 29.803 0 0 1 10.214-18.4 30.219 30.219 0 0 1 19.886-7.18 27.364 27.364 0 0 1 8.423 1.238c11.641 3.664 18.215 14.71 16.305 26.68h-.03zm-143.1 2.837a61.195 61.195 0 0 0 39.63-14.55 60.36 60.36 0 0 0 20.559-36.632c4.693-29.701-18.68-55.625-51.813-55.625h-53.377a4.158 4.158 0 0 0-4.146 3.503L678.023 206.18a3.83 3.83 0 0 0 2.201 4.08 3.817 3.817 0 0 0 1.618.358h28.262a4.158 4.158 0 0 0 4.146-3.504l7.008-44.032a4.116 4.116 0 0 1 4.152-3.51zm23.64-52.532c-1.743 10.98-10.297 19.065-26.661 19.065h-20.922l6.353-39.933H754c16.918.03 22.426 9.934 20.683 20.898z"/><path fill="#003087" d="m645.823 102.495-32.325 54.162-16.406-53.764a4.128 4.128 0 0 0-3.997-2.944h-29.172a3.129 3.129 0 0 0-3.135 2.653 3.064 3.064 0 0 0 .148 1.47l29.399 90.56-26.59 42.676a3.07 3.07 0 0 0 1.07 4.33 3.135 3.135 0 0 0 1.6.417h31.42a5.211 5.211 0 0 0 4.468-2.498l82.115-134.837a3.046 3.046 0 0 0 .065-3.153 3.117 3.117 0 0 0-2.754-1.565H650.32a5.217 5.217 0 0 0-4.497 2.493zm-98.438-2.546h-26.822a4.164 4.164 0 0 0-4.152 3.51l-.868 5.514s-20.833-22.57-57.684-7.317c-21.136 8.733-31.29 26.775-35.59 39.993 0 0-13.718 40.17 17.274 62.282 0 0 28.75 21.266 61.116-1.31l-.56 3.522a3.819 3.819 0 0 0 2.202 4.081 3.798 3.798 0 0 0 1.618.357h26.816a4.17 4.17 0 0 0 4.146-3.504L551.2 104.392a3.819 3.819 0 0 0-2.201-4.086 3.896 3.896 0 0 0-1.618-.357zm-39.439 56.761a29.809 29.809 0 0 1-10.208 18.388 30.23 30.23 0 0 1-19.886 7.174 27.393 27.393 0 0 1-8.411-1.226c-11.564-3.688-18.161-14.717-16.264-26.68a29.809 29.809 0 0 1 10.25-18.428 30.23 30.23 0 0 1 19.945-7.144 27.35 27.35 0 0 1 8.43 1.237c11.522 3.664 18.083 14.705 16.18 26.68h-.03zm-143.094 2.832a61.176 61.176 0 0 0 39.594-14.568 60.343 60.343 0 0 0 20.535-36.62c4.7-29.695-18.679-55.62-51.8-55.62h-53.384a4.164 4.164 0 0 0-4.152 3.498l-23.794 149.906a3.819 3.819 0 0 0 2.2 4.086 3.888 3.888 0 0 0 1.619.357h28.244a4.164 4.164 0 0 0 4.152-3.51l6.995-44.031a4.116 4.116 0 0 1 4.152-3.504h25.639zm23.64-52.538c-1.743 10.98-10.291 19.065-26.656 19.065h-20.921l6.341-39.933h20.547c16.923.03 22.426 9.94 20.689 20.898z"/><path fill="#001c64" d="M182.26 60.438c.636-33.11-26.674-58.51-64.228-58.51H40.355a7.596 7.596 0 0 0-7.507 6.412L1.724 202.818a6.175 6.175 0 0 0 6.098 7.139H53.84l-7.192 45.03a6.175 6.175 0 0 0 6.098 7.139h37.488c1.808 0 3.42-.648 4.8-1.82 1.369-1.178 1.595-2.802 1.88-4.593l11.005-64.744c.28-1.785 1.19-4.105 2.564-5.283s2.576-1.82 4.39-1.82h22.938c36.78 0 67.98-26.144 73.686-62.502 4.039-25.805-7.026-49.29-29.238-60.932z"/><path fill="#0070e0" d="m63.798 138.234-11.463 72.68-7.198 45.59a6.175 6.175 0 0 0 6.104 7.133h39.677a7.59 7.59 0 0 0 7.495-6.413l10.458-66.261a7.596 7.596 0 0 1 7.501-6.413h23.354c36.78 0 67.981-26.828 73.692-63.186 4.045-25.805-8.947-49.29-31.159-60.932a62.244 62.244 0 0 1-.72 8.21c-5.704 36.345-36.917 63.18-73.685 63.18H71.3a7.602 7.602 0 0 0-7.502 6.418"/><path fill="#003087" d="M52.33 210.914H6.167a6.169 6.169 0 0 1-6.091-7.138L31.2 6.413A7.596 7.596 0 0 1 38.7 0h79.33c37.555 0 64.865 27.328 64.228 60.432-9.345-4.902-20.326-7.703-32.354-7.703H83.768a7.596 7.596 0 0 0-7.507 6.412l-12.457 79.093-11.48 72.68Z"/></svg>